<?xml version="1.0" encoding="UTF-8"?><svg xmlns="http://www.w3.org/2000/svg" xmlns:xlink="http://www.w3.org/1999/xlink" viewBox="0 0 1939.92 1331.83"><defs><style>.cls-1,.cls-2{fill:none;}.cls-3,.cls-4,.cls-2{clip-rule:evenodd;}.cls-3,.cls-5,.cls-6{fill:#0bb8b3;}.cls-4,.cls-7,.cls-8{fill:#08a4ee;}.cls-9{fill:url(#linear-gradient);}.cls-10{clip-path:url(#clippath);}.cls-11{fill:#f7f9fc;}.cls-12{fill:#e6edf7;}.cls-13{fill:#9facc2;}.cls-14{fill:#adb0ff;}.cls-15{fill:#d6e1eb;}.cls-16{fill:#c7d7f2;}.cls-17{fill:#0f98ed;}.cls-18{fill:#3bb4ff;}.cls-19{fill:#60dce0;}.cls-20{fill:#bfccd9;}.cls-20,.cls-21,.cls-22,.cls-23,.cls-24,.cls-25,.cls-26{mix-blend-mode:multiply;}.cls-27{fill:#759fe3;opacity:0;}.cls-27,.cls-28,.cls-6,.cls-8,.cls-29,.cls-30,.cls-31,.cls-32,.cls-22,.cls-23,.cls-24{fill-rule:evenodd;}.cls-33{clip-path:url(#clippath-1);}.cls-34{clip-path:url(#clippath-4);}.cls-35{clip-path:url(#clippath-3);}.cls-36{clip-path:url(#clippath-2);}.cls-37{clip-path:url(#clippath-7);}.cls-38{clip-path:url(#clippath-8);}.cls-39{clip-path:url(#clippath-6);}.cls-40{clip-path:url(#clippath-5);}.cls-41{clip-path:url(#clippath-9);}.cls-42{clip-path:url(#clippath-14);}.cls-43{clip-path:url(#clippath-13);}.cls-44{clip-path:url(#clippath-12);}.cls-45{clip-path:url(#clippath-10);}.cls-46{clip-path:url(#clippath-15);}.cls-47{clip-path:url(#clippath-16);}.cls-48{clip-path:url(#clippath-11);}.cls-49{fill:url(#linear-gradient-8);}.cls-50{fill:url(#linear-gradient-9);}.cls-51{fill:url(#linear-gradient-3);}.cls-52{fill:url(#linear-gradient-4);}.cls-53{fill:url(#linear-gradient-2);}.cls-54{fill:url(#linear-gradient-6);}.cls-55{fill:url(#linear-gradient-7);}.cls-56{fill:url(#linear-gradient-5);}.cls-57{opacity:.56;}.cls-58,.cls-26{opacity:.5;}.cls-59{opacity:.9;}.cls-60{opacity:.82;}.cls-28{fill:#596d91;}.cls-29{fill:#ccc;}.cls-30{fill:#afbed6;}.cls-31{fill:#ffe6c2;}.cls-32{fill:#fff;}.cls-22{fill:#00f8cd;opacity:.53;}.cls-23{fill:#7a8e9c;opacity:.42;}.cls-24{fill:#3677e1;opacity:.4;}.cls-61{fill:url(#linear-gradient-14);}.cls-62{fill:url(#linear-gradient-15);}.cls-63{fill:url(#linear-gradient-13);}.cls-64{fill:url(#linear-gradient-12);}.cls-65{fill:url(#linear-gradient-10);}.cls-66{fill:url(#linear-gradient-11);}.cls-67{isolation:isolate;}.cls-25{opacity:.22;}</style><clipPath id="clippath"><path class="cls-2" d="M224.84,893.24c62.32,35.94,124.79,71.96,187.09,107.93,62.3,35.97,124.7,71.96,187.12,107.97,39.84,22.99,106.91,22.09,148.83-2.11,147.71-85.28,295.42-170.56,443.01-255.77,147.45-85.13,295.3-170.49,442.75-255.62,42.06-24.28,43.46-62.84,3.56-85.87-62.35-35.98-124.82-72-187.12-107.97-62.3-35.97-124.64-72.06-186.96-108-39.91-23.02-106.75-22.12-148.67,2.09-147.58,85.21-295.29,170.49-442.88,255.7-147.58,85.2-295.29,170.49-443.01,255.77-41.93,24.2-43.62,62.88-3.71,85.9h0Z"/></clipPath><linearGradient id="linear-gradient" x1="3075.02" y1="842.39" x2="3077.72" y2="842.39" gradientTransform="translate(395610.59 -2047989.8) rotate(90) scale(665.94 468.52)" gradientUnits="userSpaceOnUse"><stop offset="0" stop-color="#9facc2"/><stop offset="1" stop-color="#475973"/></linearGradient><clipPath id="clippath-1"><polygon class="cls-4" points="766.52 1073.66 286.34 796.52 1575.96 606.33 766.52 1073.66"/></clipPath><clipPath id="clippath-2"><path class="cls-2" d="M1663.86,538.13s20.05,30.55-.53,80.35c-5.57,13.48-17.31,23.5-29.69,30.64l-885.76,511.39c-41.92,24.2-108.98,25.1-148.83,2.11l-374.21-215.9c-12.31-7.1-20.66-15.69-25.09-24.88-12.61-29.95-13.27-54.36-.79-84.1-7.1,17.11-1.57,35.34,16.84,49.48,2.73,2.1,5.74,4.11,9.04,6.01l187.09,107.93,187.12,107.97c39.84,22.99,106.91,22.09,148.83-2.11l38.16-22.03,404.85-233.74,404.71-233.66,38.03-21.96c4.74-2.73,8.96-5.65,12.66-8.71,17.76-14.64,23.65-32.47,17.55-48.79h0Z"/></clipPath><linearGradient id="linear-gradient-2" x1="3080.95" y1="839.74" x2="3083.82" y2="839.74" gradientTransform="translate(-390957.57 3456622) rotate(-90) scale(1121.29 466.69)" gradientUnits="userSpaceOnUse"><stop offset="0" stop-color="#596d91"/><stop offset=".17" stop-color="#778bae"/><stop offset=".46" stop-color="#a1b2d8"/><stop offset=".53" stop-color="#fff"/><stop offset=".64" stop-color="#a1b2d8"/><stop offset="1" stop-color="#596d91"/></linearGradient><clipPath id="clippath-3"><path class="cls-1" d="M263.64,912.79l-37.58-21.67c-10.62-6.12-18.17-13.36-22.66-21.09l-.06-.12c-3.34-5.78-4.97-11.86-4.92-17.95,.05-6.11,1.82-12.29,5.26-18.26,5.06-8.78,13.78-17.13,26.1-24.25h0l442.89-255.7,.12-.06,442.88-255.7h0c20.58-11.88,47.33-18.05,73.86-18.42,26.54-.37,52.8,5.05,72.37,16.34,31.32,18.06,69.46,40.11,107.92,62.34l79.04,45.66h.01l118.35,68.3,68.77,39.67c10.72,6.19,18.33,13.5,22.84,21.3,3.33,5.77,4.97,11.83,4.92,17.91-.05,6.09-1.8,12.26-5.24,18.21-5.04,8.73-13.7,17.05-25.96,24.15l-.12,.06-442.75,255.62-443.01,255.77c-20.58,11.88-47.38,18.05-73.95,18.43-26.59,.38-52.9-5.04-72.44-16.32l-61.17-35.29-125.81-72.6-.13-.08c-39.55-22.84-95.49-55.09-149.53-86.26h0Zm-40.01-17.44l37.58,21.67c45.64,26.32,89.5,51.61,149.5,86.26l.12,.07,125.84,72.61,61.17,35.29c20.32,11.72,47.51,17.36,74.92,16.97,27.37-.39,55.03-6.78,76.35-19.08l443.01-255.77,442.75-255.62,.13-.08c13.02-7.54,22.28-16.48,27.73-25.92,3.87-6.7,5.83-13.67,5.89-20.6,.06-6.95-1.8-13.85-5.57-20.38-4.93-8.54-13.14-16.47-24.64-23.1l-68.77-39.68-118.34-68.29h0l-79.04-45.67c-33.49-19.36-67.32-38.91-107.94-62.34-20.35-11.73-47.5-17.38-74.86-16.99-27.32,.38-54.93,6.78-76.24,19.08h-.01l-442.88,255.7-.13,.08-442.86,255.68h-.01c-13.08,7.55-22.39,16.53-27.88,26.05-3.87,6.71-5.84,13.7-5.91,20.65-.07,6.97,1.79,13.89,5.57,20.44l.09,.14c4.91,8.45,13.06,16.29,24.43,22.84Z"/></clipPath><linearGradient id="linear-gradient-3" x1="3082.41" y1="840.87" x2="3085.28" y2="840.87" gradientTransform="translate(-254288.25 1935806.85) rotate(-90) scale(627.47 303.51)" gradientUnits="userSpaceOnUse"><stop offset="0" stop-color="#778bae"/><stop offset="1" stop-color="#fefefe"/></linearGradient><clipPath id="clippath-4"><path class="cls-2" d="M1070.95,391.3l405.31,234.01c-157.82,91.12-334.83,193.31-492.65,284.43-128.57-73.65-269.23-154.79-405.31-234,157.8-91.12,334.82-193.32,492.64-284.44h0Z"/></clipPath><linearGradient id="linear-gradient-4" x1="3075.74" y1="836.61" x2="3077.07" y2="836.61" gradientTransform="translate(-1229734.73 -361340.51) scale(400.06 432.69)" gradientUnits="userSpaceOnUse"><stop offset="0" stop-color="#9facc2"/><stop offset="1" stop-color="#fff"/></linearGradient><clipPath id="clippath-5"><path class="cls-1" d="M1117.49,368.17c65.26,37.73,130.56,75.38,195.85,113.07,65.28,37.69,130.59,75.34,195.95,113.07,13.54,7.82,13.62,20.59,.1,28.39l-.1,.06c-13.52,7.8-35.63,7.76-49.17-.06-65.36-37.73-130.67-75.38-195.95-113.07-65.28-37.69-130.58-75.34-195.84-113.07-13.54-7.82-13.62-20.59-.1-28.39,0,0,0,0,.1-.06,13.51-7.8,35.63-7.76,49.17,.06h0Z"/></clipPath><linearGradient id="linear-gradient-5" x1="3071.6" y1="847.12" x2="3073.84" y2="847.12" gradientTransform="translate(197493.11 -709140.84) rotate(90) scale(230.97 231.61)" gradientUnits="userSpaceOnUse"><stop offset="0" stop-color="#9facc2"/><stop offset="1" stop-color="#6d88b0"/></linearGradient><clipPath id="clippath-6"><path class="cls-2" d="M1483.57,609.46c.58,.42,1.16,.83,1.75,1.24-.59-.4-1.17-.81-1.75-1.24h0Zm-1.81-1.39c.57,.46,1.15,.9,1.73,1.33-.59-.43-1.16-.88-1.73-1.33Zm-27.48-207.08v135.89c0,33.06,10.33,57.46,27.45,71.16-.51-.41-1.02-.83-1.52-1.26l7.04,5.16h.02l-.06-.02-268.23-154.86v-3.41c0-11.58,1.27-23.57,3.64-35.69,12.97-66.08,59.04-136.21,113.74-167.76,.2-.11,.36-.16,.53-.26,31.58-18.23,60.31-20.28,81.44-8.93l2.95,1.7h.01c20.4,12.64,32.98,38.56,32.98,75v83.27Z"/></clipPath><linearGradient id="linear-gradient-6" x1="3068.2" y1="844.21" x2="3070.67" y2="844.21" gradientTransform="translate(159505.66 -599821.63) rotate(90) scale(195.58 187.34)" gradientUnits="userSpaceOnUse"><stop offset="0" stop-color="#b3b3b3"/><stop offset="1" stop-color="#fefefe"/></linearGradient><clipPath id="clippath-7"><path class="cls-2" d="M1336.37,250.21c-64.74,37.33-117.38,128.71-117.38,203.44v177.96c0,74.6-52.8,165.98-117.46,203.31-46.97,27.12-93.91,54.24-140.85,81.34l-405.31-234.01c46.96-27.12,93.88-54.23,140.84-81.34,64.66-37.33,117.46-128.71,117.46-203.31V219.65c0-74.73,52.64-166.11,117.38-203.44,.2-.11,.36-.16,.53-.26,33.08-19.1,63.03-20.44,84.4-7.21l402.35,232.3c-21.13-11.36-49.86-9.31-81.44,8.93-.17,.1-.33,.15-.53,.26h0Z"/></clipPath><linearGradient id="linear-gradient-7" x1="3077.57" y1="835.74" x2="3078.6" y2="835.74" gradientTransform="translate(-1359028.05 -349338.86) scale(441.85 418.54)" gradientUnits="userSpaceOnUse"><stop offset="0" stop-color="#fff"/><stop offset=".45" stop-color="#ccc"/><stop offset="1" stop-color="#ededed"/></linearGradient><clipPath id="clippath-8"><path class="cls-2" d="M1189.47,750.12c-21.75,37.66-51.86,70.59-85.07,89.77l-.32,.17-58.91,34.07-84.49,48.78v-6.61l140.85-81.37c64.65-37.35,117.46-128.71,117.46-203.31v-177.96c0-74.73,52.64-166.11,117.38-203.44,.2-.11,.36-.16,.53-.26,64.66-37.33,117.37-6.83,117.38,67.77l.05,214.6c0,35.82,13.28,61.32,33.93,73.61l1.79,1.05-2.84,4.95-1.89-1.23c-11.54-6.87-20.82-17.41-27.17-31.2-5.97-12.97-9.35-28.82-9.56-47.18l-.05-214.59c0-20.62-4.15-37.58-11.52-50.35-5.18-8.97-11.98-15.89-20.06-20.55-8.04-4.64-17.43-7.06-27.83-7.06-14.78,0-31.53,4.87-49.35,15.16l-.65,.33-.19,.1c-31.35,18.17-59.84,49.48-80.55,85.37-20.78,36.02-33.66,76.55-33.66,112.95v177.96c0,38.31-13.5,80.83-35.26,118.5h0Z"/></clipPath><linearGradient id="linear-gradient-8" x1="3081.94" y1="843.54" x2="3084.64" y2="843.54" gradientTransform="translate(1808057.38 476110.6) rotate(180) scale(586.04 563.75)" gradientUnits="userSpaceOnUse"><stop offset="0" stop-color="#b3b3b3"/><stop offset="1" stop-color="#fff"/></linearGradient><clipPath id="clippath-9"><path class="cls-2" d="M595.62,367.51c36.09,20.82,54,48.11,54,75.37v403.28c0,27.25-17.98,54.52-54.05,75.34-36.07,20.82-83.47,31.23-130.73,31.23s-94.48-10.4-130.57-31.2c-36.09-20.8-54.2-48.11-54.2-75.37V442.88c0-27.26,18.11-54.55,54.2-75.37,36.09-20.82,83.32-31.24,130.57-31.24s94.69,10.42,130.78,31.24h0Z"/></clipPath><linearGradient id="linear-gradient-9" x1="3096.88" y1="840.94" x2="3098.78" y2="840.94" gradientTransform="translate(477037.97 224949.85) rotate(-180) scale(153.83 266.73)" gradientUnits="userSpaceOnUse"><stop offset="0" stop-color="#2bc283"/><stop offset="1" stop-color="#00f8cd"/></linearGradient><clipPath id="clippath-10"><path class="cls-3" d="M595.62,367.51c36.09,20.82,54,48.11,54,75.37v403.28c0,27.25-17.98,54.52-54.05,75.34-36.07,20.82-83.47,31.23-130.73,31.23s-94.48-10.4-130.57-31.2c-36.09-20.8-54.2-48.11-54.2-75.37V442.88c0-27.26,18.11-54.55,54.2-75.37,36.09-20.82,83.32-31.24,130.57-31.24s94.69,10.42,130.78,31.24h0Z"/></clipPath><clipPath id="clippath-11"><path class="cls-2" d="M464.84,598.95c-44.75,0-89.5-9.33-124.75-27.99-4.26-2.26-9.02-2.12-13.15,.37-4.13,2.49-6.48,6.63-6.48,11.46v269.44c0,9.79,4.84,18.2,13.31,23.12,38.14,22.32,87.28,31.49,131.07,31.49,47.25,0,94.5-10.41,130.57-31.2,8.77-5.09,13.8-13.16,13.8-23.41v-269.44c0-4.83-2.34-8.97-6.47-11.46-4.13-2.49-8.89-2.62-13.15-.37-35.25,18.65-80,27.99-124.75,27.99h0Z"/></clipPath><linearGradient id="linear-gradient-10" x1="3091.79" y1="840.43" x2="3093.34" y2="840.43" gradientTransform="translate(655647.71 113539.36) rotate(-180) scale(211.81 134.22)" gradientUnits="userSpaceOnUse"><stop offset="0" stop-color="#94b8e2"/><stop offset="1" stop-color="#fefefe"/></linearGradient><clipPath id="clippath-12"><path class="cls-2" d="M464.84,469.98c-51.27,0-102.55-10.75-141.68-32.26-14.3-7.85-26-16.59-35.08-25.9-15.82-16.2-23.73-34.12-23.73-52.02,0-27.36,18.5-54.75,55.45-76.03-1.27,.7-2.53,1.41-3.78,2.13-41.17,23.75-61.78,54.84-61.78,85.91,0,20.51,8.98,41.04,26.93,59.45,9.24,9.48,20.86,18.39,34.85,26.46,41.11,23.71,94.97,35.56,148.83,35.56s107.9-11.86,149-35.6c13.93-8.04,25.5-16.92,34.7-26.36,17.95-18.42,26.91-38.97,26.91-59.51,0-31.06-20.41-62.18-61.54-85.91-1.32-.76-2.67-1.52-4.02-2.25,37.06,21.28,55.45,48.75,55.45,76.16,0,17.9-7.88,35.82-23.66,52.02-9.06,9.3-20.72,18.03-34.98,25.87-39.14,21.54-90.58,32.29-141.85,32.29h0Z"/></clipPath><linearGradient id="linear-gradient-11" x1="3065.6" y1="846.98" x2="3068.48" y2="846.98" gradientTransform="translate(118345.9 -630014.06) rotate(90) scale(205.53 139.18)" gradientUnits="userSpaceOnUse"><stop offset="0" stop-color="#fff"/><stop offset="1" stop-color="#969aff"/></linearGradient><clipPath id="clippath-13"><path class="cls-2" d="M609.88,283.65c-40.61-22.22-92.92-33.34-145.05-33.34s-104.45,11.18-145.04,33.47c-36.95,21.28-55.46,48.67-55.46,76.03,0,17.89,7.92,35.81,23.73,52.02,9.09,9.31,20.78,18.05,35.09,25.9,39.13,21.51,90.41,32.26,141.68,32.26s102.71-10.75,141.85-32.29c14.27-7.84,25.93-16.57,34.98-25.87,15.78-16.2,23.66-34.12,23.66-52.02,0-27.41-18.39-54.87-55.45-76.16h0Z"/></clipPath><linearGradient id="linear-gradient-12" x1="3071.75" y1="843.79" x2="3074.51" y2="843.79" gradientTransform="translate(268375.5 -1292065.8) rotate(90) scale(420.44 317.51)" gradientUnits="userSpaceOnUse"><stop offset="0" stop-color="#969aff"/><stop offset="1" stop-color="#fefefe"/></linearGradient><clipPath id="clippath-14"><path class="cls-2" d="M666.87,406.22c-2.64,5.18-5.89,10.28-9.75,15.26-2.59,3.33-5.45,6.62-8.58,9.84-1.44,1.48-2.93,2.94-4.49,4.38-4.82,4.49-10.19,8.84-16.12,13.01-4.39,3.09-9.08,6.08-14.08,8.97-1.63,.94-3.27,1.86-4.94,2.76-6.98,3.78-14.31,7.24-21.91,10.36-8.04,3.3-16.39,6.24-24.98,8.82-9.2,2.76-18.67,5.09-28.34,7.02-10.53,2.09-21.29,3.69-32.17,4.79-12.12,1.23-24.4,1.84-36.65,1.84s-24.54-.62-36.66-1.85c-10.88-1.11-21.64-2.71-32.17-4.8-9.67-1.93-19.15-4.27-28.34-7.03-8.59-2.58-16.94-5.53-24.98-8.84-7.61-3.14-14.93-6.6-21.92-10.38-1.61-.87-3.19-1.76-4.76-2.66-5.07-2.92-9.82-5.95-14.26-9.08-5.93-4.17-11.3-8.52-16.12-13.01-1.55-1.44-3.03-2.9-4.47-4.37-3.14-3.22-6.01-6.51-8.6-9.85-3.86-4.97-7.11-10.07-9.75-15.25-5.26-10.31-8.1-20.94-8.52-31.58v59.85c.42,10.65,3.26,21.28,8.52,31.59,2.64,5.18,5.89,10.27,9.75,15.24,3.77,4.86,8.13,9.62,13.07,14.22,4.82,4.49,10.19,8.84,16.12,13.02,4.44,3.13,9.2,6.16,14.26,9.07,1.57,.91,3.16,1.8,4.76,2.67,6.99,3.79,14.31,7.25,21.92,10.38,8.04,3.31,16.38,6.26,24.98,8.83,9.2,2.76,18.67,5.11,28.34,7.03,10.53,2.1,21.29,3.7,32.17,4.8,12.12,1.23,24.39,1.84,36.66,1.84s24.53-.61,36.65-1.84c10.88-1.1,21.64-2.7,32.17-4.79,9.67-1.92,19.15-4.26,28.34-7.02,8.59-2.57,16.94-5.51,24.98-8.82,7.61-3.13,14.93-6.58,21.91-10.36,1.67-.9,3.32-1.82,4.94-2.76,5-2.89,9.69-5.88,14.08-8.97,5.93-4.17,11.3-8.52,16.12-13.01,4.94-4.6,9.3-9.36,13.07-14.22,3.86-4.98,7.11-10.08,9.75-15.26,5.72-11.22,8.57-22.82,8.57-34.42v-59.85c0,11.6-2.86,23.2-8.57,34.41h0Z"/></clipPath><linearGradient id="linear-gradient-13" x1="3085.32" y1="842.11" x2="3088.19" y2="842.11" gradientTransform="translate(1199517.87 71071.25) rotate(-180) scale(388.38 83.85)" xlink:href="#linear-gradient-12"/><clipPath id="clippath-15"><path class="cls-2" d="M644.05,495.56v-59.85c-4.82,4.49-10.19,8.83-16.12,13.01v59.85c5.93-4.17,11.3-8.52,16.12-13.01h0Zm-35.15,24.74v-59.85c-6.98,3.78-14.31,7.24-21.91,10.36v59.85c7.61-3.13,14.93-6.58,21.91-10.36Zm-46.89-40.67c-9.2,2.76-18.67,5.09-28.34,7.02v59.85c9.67-1.92,19.15-4.26,28.34-7.02v-59.85Zm-60.51,11.81c-12.12,1.23-24.4,1.84-36.65,1.84v59.85c12.26,0,24.53-.61,36.65-1.84v-59.85Zm-73.31,0c-10.88-1.11-21.64-2.71-32.17-4.8v59.85c10.53,2.1,21.29,3.7,32.17,4.8v-59.85Zm-60.51-11.83c-8.59-2.58-16.94-5.53-24.98-8.84v59.85c8.04,3.31,16.38,6.26,24.98,8.84v-59.85Zm-46.89,40.63v-59.85c-1.61-.87-3.19-1.76-4.76-2.66-5.07-2.92-9.82-5.95-14.26-9.07v59.85c4.44,3.13,9.2,6.16,14.26,9.07,1.57,.91,3.16,1.8,4.76,2.67Zm-35.15-24.75v-59.85c-1.55-1.44-3.03-2.9-4.47-4.37-3.14-3.22-6.01-6.51-8.6-9.85v59.86c3.77,4.86,8.13,9.62,13.07,14.22Zm-22.82-29.46v-59.86c-5.26-10.31-8.1-20.94-8.52-31.58v59.85c.42,10.65,3.26,21.28,8.52,31.59Zm404.07,.06v-59.86c-2.64,5.18-5.89,10.28-9.75,15.26v59.86c3.86-4.98,7.11-10.08,9.75-15.26Z"/></clipPath><linearGradient id="linear-gradient-14" x1="3086.63" y1="842.11" x2="3089.5" y2="842.11" gradientTransform="translate(1059545.67 69994.94) rotate(-180) scale(342.96 82.57)" xlink:href="#linear-gradient-12"/><clipPath id="clippath-16"><path class="cls-2" d="M601.81,287.91c-38.34-20.98-87.75-31.48-136.97-31.48s-98.63,10.55-136.97,31.61c-34.89,20.1-52.37,45.96-52.37,71.79,0,16.9,7.47,33.82,22.41,49.12,8.58,8.79,19.63,17.05,33.13,24.46,36.95,20.31,85.37,30.46,133.79,30.46s96.99-10.15,133.95-30.49c13.47-7.4,24.48-15.65,33.03-24.43,14.91-15.3,22.34-32.22,22.34-49.12,0-25.89-17.36-51.81-52.36-71.92h0Z"/></clipPath><linearGradient id="linear-gradient-15" x1="3070.35" y1="844.78" x2="3073.23" y2="844.78" gradientTransform="translate(187978.85 -1026079.53) rotate(90) scale(334.11 221.96)" xlink:href="#linear-gradient-12"/></defs><g class="cls-67"><g id="Layer_2"><g id="Layer_1-2"><ellipse id="circle" class="cls-15" cx="969.96" cy="771.8" rx="969.96" ry="560.02"/><g><path class="cls-28" d="M224.84,946.72l374.21,215.9c39.84,22.98,106.91,22.09,148.83-2.11l885.76-511.39c14.92-8.62,24.81-19,29.39-29.92,12.12-28.85,13.01-51.81,.83-81.07-3.92-10.5-12.8-20.37-26.66-28.37l-187.12-107.97c-62.3-35.98-124.64-72.07-186.96-108.01-39.91-23.02-106.75-22.12-148.68,2.08l-442.88,255.7-443.01,255.77c-15.11,8.72-24.99,19.33-29.59,30.4-12.49,29.75-11.82,54.15,.79,84.1,4.44,9.19,12.79,17.78,25.09,24.88h0Z"/><g class="cls-10"><rect class="cls-9" x="358.95" y="-116.06" width="1144.13" height="1635.03" transform="translate(56.49 1472.19) rotate(-78.39)"/></g><path class="cls-27" d="M266.72,785.31c86.6,49.88,173.13,99.82,259.7,149.76,86.5,49.9,173.13,99.92,259.63,149.92,134.99-77.94,269.98-155.88,404.85-233.74,134.86-77.86,269.85-155.8,404.72-233.66-86.63-49.92-173.19-99.91-259.75-149.85-86.5-49.9-172.97-99.96-259.45-149.91-134.99,77.94-269.98,155.88-404.85,233.74-134.86,77.86-269.85,155.8-404.85,233.74h0Z"/><polygon class="cls-8" points="286.34 796.52 766.52 1073.66 1575.96 606.33 1095.91 329.12 286.34 796.52"/><g class="cls-25"><g><polygon class="cls-8" points="766.52 1073.66 286.34 796.52 1575.96 606.33 766.52 1073.66"/><g class="cls-33"><rect class="cls-7" x="252.67" y="206.5" width="1356.82" height="1023.79" transform="translate(-229.49 528.46) rotate(-28.36)"/></g></g></g><g class="cls-36"><rect class="cls-53" x="462.76" y="62.19" width="944.87" height="1599.37" transform="translate(-102.4 1597.27) rotate(-77.99)"/></g><g class="cls-35"><rect class="cls-51" x="498.27" y="-39.41" width="865.61" height="1481.72" transform="translate(222.5 1627.12) rotate(-89.56)"/></g><polygon class="cls-23" points="418.71 1025.32 362.04 992.75 348.16 1001.82 428.3 1048.06 418.71 1025.32"/><path class="cls-24" d="M1320.39,411.02c37.94,21.81,75.81,43.75,113.73,65.69,8.08,4.68,21.62,4.48,30.06-.39h0c8.57-4.95,8.78-12.69,.7-17.37-37.92-21.94-75.78-43.88-113.73-65.69-8.16-4.69-21.62-4.48-30.19,.47h0c-8.44,4.87-8.73,12.61-.57,17.3h0Z"/></g><g><g class="cls-26"><g class="cls-34"><rect class="cls-52" x="553.65" y="134.93" width="947.27" height="1031.18" transform="translate(-102.86 1099.14) rotate(-53.99)"/></g></g><g><g class="cls-40"><rect class="cls-56" x="1033.14" y="230.17" width="511.33" height="530.54" transform="translate(68.62 1141.68) rotate(-48.93)"/></g><path class="cls-30" d="M1101.22,376.28l393.97,227.44c5.18,2.99,5.21,7.88,.04,10.86-.04,.02-.04,.02-.04,.02-5.17,2.99-13.63,2.97-18.81-.02l-393.97-227.44c-5.18-2.99-5.21-7.87-.04-10.86l.04-.02c5.17-2.99,13.63-2.96,18.81,.02h0Z"/></g></g><g><g><g class="cls-39"><rect class="cls-54" x="1129.51" y="233.4" width="447.24" height="374.83" transform="translate(528.38 1573.13) rotate(-71.68)"/></g><path class="cls-29" d="M931.05,16.21c-64.74,37.33-117.38,128.71-117.38,203.44v177.96c0,74.6-52.8,165.98-117.46,203.31-46.94,27.14-93.88,54.23-140.84,81.34v6.64l405.31,234.01c46.93-27.1,93.88-54.22,140.85-81.34,64.66-37.33,117.46-128.71,117.46-203.31v-177.96c0-74.73,52.64-166.11,117.38-203.44,.2-.11,.36-.16,.53-.26,31.58-18.23,60.31-20.28,81.44-8.93l-23.22-13.4c8.45,.73,16.25,3.02,23.22,6.76L1015.98,8.73c-21.37-13.23-51.32-11.88-84.4,7.21-.17,.1-.33,.15-.53,.26h0Z"/><g class="cls-37"><rect class="cls-55" x="393.73" y="-122.06" width="1186.26" height="1155.89" transform="translate(179.09 1183.37) rotate(-66.8)"/></g><g class="cls-38"><rect class="cls-49" x="807.18" y="125.31" width="836.37" height="884.92" transform="translate(-107.77 783.68) rotate(-34.06)"/></g></g><g><path class="cls-7" d="M1242.49,255.14c1.88,1.08,4.44-.17,6.24-2.34,4.77-5.77,10.12-11.27,16.05-16.3,6.03-5.12,12.71-9.77,19.81-14.16,2.57-1.59,3.61-3.51,1.92-4.48-1.6-.91-5.31-.5-7.9,1.06-4.61,2.79-8.99,5.74-13.13,8.85-4.09,3.07-7.9,6.35-11.62,9.66,2.8-5.34,5.12-9.48,7.71-13.35,2.61-3.9,5.44-7.56,9.22-12.04,1.09-1.29,1.07-2.61-.08-3.26-1.8-1.02-5.33-.63-8.23,1.17-7.07,4.38-13.74,9.07-19.77,14.19-5.93,5.03-11.24,10.53-16.01,16.3-1.68,2.04-1.63,4.71,0,5.65,1.66,.95,4.34-.13,5.98-2.21,2.93-3.71,6.17-7.25,9.66-10.59,3.56-3.4,7.38-6.6,11.29-9.73-2.62,4.35-5.09,8.75-7.19,13.37-2.1,4.61-3.88,9.44-5.31,14.45-.45,1.57,.26,3.14,1.36,3.77h0Zm-3.95-53.83c3.8,2.18,1.29,5.35-4.02,9.38-4.24,3.21-8.25,6.6-12.02,10.21-4.49,4.31-8.92,6.65-12.4,4.63-3.46-2-2.27-6.18,2.21-10.5,3.74-3.6,7.76-6.99,12.03-10.21,5.32-4.01,10.48-5.65,14.2-3.51Zm-34.38,31.81c3.65,2.1,7.72,1.84,11.73,.11,4.11-1.77,8.48-4.99,12.58-8.91,3.76-3.59,7.76-6.98,12.03-10.21,4.63-3.51,8.4-6.98,10.15-10.13,1.72-3.12,1.29-5.99-2.69-8.27-3.98-2.28-9.05-2.63-14.35-1.52-5.25,1.1-10.61,3.69-15.24,7.21-4.23,3.23-8.24,6.61-12.03,10.22-4.12,3.92-6.62,8.26-7.05,12.09-.43,3.87,1.18,7.3,4.87,9.42Zm-22.73-18.6c-1.55,2.03-1.59,4.63,.07,5.58,1.63,.93,4.24-.2,5.87-2.16,4.83-5.83,10.23-11.37,16.16-16.44,6.07-5.19,12.83-9.87,19.96-14.32,2.46-1.54,3.46-3.52,1.84-4.45-1.66-.96-5.33-.51-7.82,1.04-7.14,4.43-13.86,9.13-19.92,14.3-5.96,5.07-11.25,10.7-16.16,16.46Zm-20.99-12.04c-1.55,2.03-1.59,4.61,.07,5.56,1.66,.95,4.23-.18,5.87-2.16,4.23-5.12,8.91-10.01,14.02-14.56,5.18-4.61,10.92-8.8,16.9-12.93,1.48,.86,3,1.72,4.54,2.6,1.6,.91,5.08,.37,7.53-1.1,2.68-1.61,3.33-3.65,1.81-4.52-5.01-2.87-10.03-5.74-15.02-8.6-1.66-.95-5.73-.2-7.82,1.06-2.45,1.48-3.24,3.56-1.51,4.55,1.48,.85,2.99,1.74,4.54,2.62-5.98,4.1-11.72,8.29-16.9,12.91-5.09,4.54-9.7,9.53-14.02,14.58Zm3.03-43.5c1.22,.68,2.43,1.4,3.65,2.1,3.98,2.28,1.11,5.29-2.28,7.85-4.68,3.53-8.36,4.25-11.55,2.43-1.24-.71-2.44-1.39-3.65-2.05,4.43-3.58,9-7.02,13.84-10.33Zm-17.63,19.08c6.6,3.79,15.4,1.52,24.9-5.67,8.07-6.1,13.71-12.33,5.68-16.94-2.08-1.19-4.18-2.39-6.27-3.6-1.74-1-5.85-.6-8.71,1.22-6.81,4.32-13.25,8.93-19.07,13.94-5.73,4.93-10.93,10.32-15.61,15.93-1.74,2.09-1.63,4.77-.04,5.69,1.62,.93,4.33-.2,5.98-2.25,2.92-3.62,6.16-7.04,9.52-10.39,1.18,.68,2.4,1.39,3.62,2.08Zm-34.5-3.82c-1.55,2.05-1.62,4.6,.08,5.58,1.59,.92,4.24-.17,5.9-2.14,4.87-5.79,10.24-11.35,16.16-16.44,6.04-5.18,12.74-9.89,19.85-14.32,2.49-1.55,3.5-3.53,1.88-4.46-1.7-.97-5.36-.5-7.82,1.04-7.13,4.44-13.85,9.14-19.88,14.32-5.92,5.08-11.21,10.7-16.16,16.41Zm10.59-31.77c-3.43,2.51-6.83,3.09-9.74,1.41-1.59-.92-3.17-1.83-4.76-2.74,3.54-2.76,7.19-5.42,11.03-8.03,1.48,.86,2.96,1.7,4.5,2.58,3.88,2.23,1.77,4.72-1.03,6.77Zm5.98,3.44c7.06-5.13,12.54-11.12,4.54-15.71-2.51-1.43-4.94-2.87-7.42-4.28-1.73-.99-5.77-.53-8.63,1.28-6.81,4.32-13.22,8.91-19.04,13.94-5.7,4.93-10.88,10.34-15.6,15.93-1.77,2.09-1.67,4.75-.11,5.65,1.62,.93,4.37-.18,6.05-2.21,3.74-4.51,7.86-8.71,12.14-12.84,.96,.55,1.92,1.1,2.91,1.65-1.33,3.03-2.61,6.12-3.69,9.25-1.1,3.17-2.07,6.42-2.88,9.73-.37,1.5,.04,2.69,1.11,3.31,1.92,1.11,6.29-.94,7.38-4.63,1.5-5.09,3.39-9.95,5.35-14.74,5.35,.62,11.41-1.62,17.89-6.33Zm-45.3-22.48c5.72-4.15,10.73-5.93,14.57-3.73,1.36,.78,1.91,1.76,1.85,3.13,0,.16,.04,.33,.04,.53,0,.68-.19,1.18,.77,1.74,1.62,.94,4.71,.26,7.01-1.17,4.19-2.6,3.66-7.14-.85-9.73-3.76-2.16-8.53-2.68-13.69-1.65-5.06,1.01-10.52,3.51-15.68,7.44-4.25,3.23-8.19,6.67-11.92,10.26-4.43,4.27-6.92,8.54-7.34,12.2-.43,3.73,1.14,6.89,4.87,9.02,4.5,2.58,10.97,2.09,13.84-1.28,1.6-1.88,1.88-4.08,.3-5.01-1-.58-1.66-.35-2.62-.22-.22,.03-.51,.08-.7,.11-1.91,.3-3.4,.11-4.79-.68-3.8-2.18-2.37-6.08,2.43-10.72,3.72-3.59,7.75-6.93,11.92-10.23Zm-34.05,1.85c-2.98,3.03-6.01,3.96-8.97,2.27-1.84-1.05-2.6-2.51-3.17-3.53-.49-.88-.88-1.56-1.51-1.92-1.58-.92-4.45,.1-6.01,1.99-3.38,4.07,1.41,9.1,4.57,10.92,6.09,3.5,13.98,1,21.51-6.55,7.87-7.9,5.73-11.97,3.47-15.89-.5-.87-1.11-1.83-1.4-3.13-.19-.82-.34-2.2,2.58-4.28,4.02-2.86,7.19-2.44,9.26-1.26,1.51,.86,1.86,1.81,2.21,2.56,.31,.67,.6,1.26,1.36,1.7,1.86,1.06,5.05,.26,7.42-1.17,5.53-3.33,.7-7.36-1.81-8.8-6.05-3.48-16.09-2.69-24.79,3.64-9.46,6.89-6.61,11.54-4.24,15.53,.66,1.11,1.2,2.22,1.59,3.24,.32,.85,.37,2.2-2.07,4.68Zm-27.78-3.93c1.67-2.03,1.69-4.38,.11-5.29-3.1-1.78-6.19-3.55-9.26-5.32,2.84-3.07,5.83-6.07,8.89-8.98,2.66,1.52,5.35,3.07,8.04,4.61,1.66,.95,4.57,.22,6.75-1.68,2.14-1.86,2.4-4.02,.92-4.88-2.69-1.57-5.39-3.11-8.08-4.63,3.43-2.67,6.97-5.27,10.66-7.81,2.95,1.7,5.9,3.4,8.86,5.09,1.62,.93,4.8,.48,7.41-1.1,2.59-1.57,3.5-3.57,1.88-4.5-3.88-2.22-7.71-4.44-11.55-6.64-1.84-1.06-6.03-.4-8.56,1.21-6.66,4.24-12.92,8.73-18.6,13.63-5.58,4.83-10.69,9.99-15.38,15.47-2.65,3.09-1.52,5.28,.59,6.48,3.76,2.15,7.5,4.29,11.29,6.46,1.59,.91,4.29-.04,6.01-2.14Zm-8.19-41.67c-3.4,2.5-6.71,3.13-9.66,1.44-1.62-.93-3.21-1.83-4.8-2.76,3.51-2.76,7.16-5.43,10.99-8.03,1.47,.86,2.99,1.71,4.54,2.6,3.84,2.22,1.73,4.69-1.07,6.75Zm5.98,3.44c7.05-5.15,12.5-11.12,4.5-15.71-2.47-1.41-4.95-2.84-7.42-4.26-1.74-1.01-5.75-.56-8.59,1.26-6.79,4.32-13.17,8.96-18.93,13.98-5.68,4.97-10.84,10.33-15.64,15.91-1.77,2.06-1.73,4.68-.15,5.58,1.62,.93,4.39-.14,6.12-2.18,3.77-4.44,7.86-8.67,12.14-12.8,.92,.55,1.92,1.1,2.88,1.68-1.29,3.03-2.57,6.1-3.65,9.22-1.09,3.14-2.06,6.42-2.92,9.68-.4,1.52-.04,2.67,1.03,3.29,1.92,1.1,6.43-.87,7.53-4.59,1.49-5.06,3.36-9.93,5.31-14.69,5.31,.62,11.32-1.66,17.78-6.38Zm-37.71-29.01c1.22,.68,2.44,1.38,3.65,2.07,4.03,2.31,1.12,5.31-2.25,7.88-4.64,3.54-8.29,4.31-11.47,2.49-1.21-.69-2.44-1.39-3.65-2.07,4.35-3.6,8.89-7.04,13.73-10.37Zm-17.49,19.15c6.6,3.79,15.39,1.48,24.79-5.71,7.99-6.11,13.62-12.37,5.61-16.97-2.1-1.2-4.17-2.39-6.23-3.58-1.81-1.04-5.86-.62-8.71,1.19-6.79,4.32-13.14,8.96-18.89,13.99-5.69,4.97-10.85,10.33-15.64,15.9-1.77,2.06-1.73,4.68-.15,5.58,1.63,.93,4.35-.14,6.05-2.16,3.02-3.58,6.23-6.99,9.55-10.33,1.18,.68,2.4,1.39,3.62,2.08Z"/><g><g class="cls-57"><path class="cls-13" d="M1177.16,286.57c-.73,0-1.47-.19-2.15-.58l-268.14-154.81c-2.06-1.19-2.77-3.83-1.58-5.89,1.19-2.06,3.83-2.77,5.89-1.58l268.14,154.81c2.06,1.19,2.77,3.83,1.58,5.89-.8,1.38-2.25,2.16-3.74,2.16Z"/></g><g class="cls-57"><path class="cls-13" d="M1122.92,303.18c-.73,0-1.47-.19-2.15-.58l-233.3-134.69c-2.06-1.19-2.77-3.83-1.58-5.89,1.19-2.06,3.83-2.77,5.89-1.58l233.3,134.69c2.06,1.19,2.77,3.83,1.58,5.89-.8,1.38-2.25,2.16-3.74,2.16Z"/></g><g class="cls-57"><path class="cls-13" d="M1154.28,369.22c-.73,0-1.47-.19-2.15-.58l-278.5-160.8c-2.06-1.19-2.77-3.83-1.58-5.89,1.19-2.06,3.83-2.77,5.89-1.58l278.5,160.8c2.06,1.19,2.77,3.83,1.58,5.89-.8,1.38-2.25,2.16-3.74,2.16Z"/></g><g class="cls-57"><path class="cls-13" d="M1081.58,375.17c-.73,0-1.47-.19-2.15-.58l-212.13-122.47c-2.06-1.19-2.77-3.83-1.58-5.89,1.19-2.06,3.83-2.77,5.89-1.58l212.13,122.47c2.06,1.19,2.77,3.83,1.58,5.89-.8,1.38-2.25,2.16-3.74,2.16Z"/></g><g class="cls-57"><path class="cls-13" d="M1083.84,424.39c-.73,0-1.47-.19-2.15-.58l-214.42-123.79c-2.06-1.19-2.77-3.83-1.58-5.89,1.19-2.06,3.83-2.77,5.89-1.58l214.42,123.79c2.06,1.19,2.77,3.83,1.58,5.89-.8,1.38-2.25,2.16-3.74,2.16Z"/></g><g class="cls-57"><path class="cls-13" d="M1131.74,499.97c-.73,0-1.47-.19-2.15-.58l-262.32-151.45c-2.06-1.19-2.77-3.83-1.58-5.89,1.19-2.06,3.83-2.77,5.89-1.58l262.32,151.45c2.06,1.19,2.77,3.83,1.58,5.89-.8,1.38-2.25,2.16-3.74,2.16Z"/></g><g class="cls-57"><path class="cls-13" d="M1081.54,518.92c-.73,0-1.47-.19-2.15-.58l-212.12-122.47c-2.06-1.19-2.77-3.83-1.58-5.89,1.19-2.06,3.83-2.77,5.89-1.58l212.12,122.47c2.06,1.19,2.77,3.83,1.58,5.89-.8,1.38-2.25,2.16-3.74,2.16Z"/></g><g class="cls-57"><path class="cls-13" d="M1129.67,594.63c-.73,0-1.47-.19-2.15-.58l-260.56-150.44c-2.06-1.19-2.77-3.83-1.58-5.89,1.19-2.06,3.83-2.77,5.89-1.58l260.56,150.44c2.06,1.19,2.77,3.83,1.58,5.89-.8,1.38-2.25,2.16-3.74,2.16Z"/></g><g class="cls-57"><path class="cls-13" d="M1093.74,621.81c-.73,0-1.47-.19-2.15-.58l-232.29-134.11c-2.06-1.19-2.77-3.83-1.58-5.89,1.19-2.06,3.83-2.77,5.89-1.58l232.29,134.11c2.06,1.19,2.77,3.83,1.58,5.89-.8,1.38-2.25,2.16-3.74,2.16Z"/></g><g class="cls-57"><path class="cls-13" d="M1112.77,680.72c-.73,0-1.47-.19-2.15-.58l-266.06-153.6c-2.06-1.19-2.77-3.83-1.58-5.89s3.83-2.77,5.89-1.58l266.06,153.6c2.06,1.19,2.77,3.83,1.58,5.89-.8,1.38-2.25,2.16-3.74,2.16Z"/></g><g class="cls-57"><path class="cls-13" d="M1064.48,700.77c-.73,0-1.47-.19-2.15-.58l-237.94-137.38c-2.06-1.19-2.77-3.83-1.58-5.89,1.19-2.06,3.83-2.77,5.89-1.58l237.94,137.38c2.06,1.19,2.77,3.83,1.58,5.89-.8,1.38-2.25,2.16-3.74,2.16Z"/></g></g><g class="cls-59"><path class="cls-19" d="M724.07,724.9c-2.37,0-4.3-1.92-4.31-4.3-.02-6.18-.04-12.4-.04-18.63h-35.35c-2.38,0-4.31-1.93-4.31-4.31s1.93-4.31,4.31-4.31h35.35c0-9.33,.01-18.67,.04-27.96l-15.73-9.08-29.34,16.94c-2.06,1.2-4.7,.49-5.89-1.58-1.19-2.06-.48-4.7,1.58-5.89l31.4-18.13c.06-.04,.12-.07,.18-.1l45.16-26.07c1.34-.77,2.98-.77,4.31,0l22.59,13.04c7.42,4.28,11.5,10.25,11.5,16.79,0,6.55-4.09,12.51-11.5,16.79-12.42,7.17-31.95,7.82-45.65,1.95-.02,7.75-.03,15.52-.03,23.29h35.44c2.38,0,4.31,1.93,4.31,4.31s-1.93,4.31-4.31,4.31h-35.44c0,6.22,.02,12.42,.04,18.6,0,2.38-1.92,4.32-4.3,4.33h-.01Zm2.6-65.47l2.1,1.21c11.1,6.41,29.84,6.4,40.93,0,4.57-2.64,7.19-6.04,7.19-9.33s-2.62-6.69-7.19-9.33l-20.43-11.8-36.62,21.14,13.09,7.56c.33,.14,.65,.32,.93,.54Z"/></g><g class="cls-60"><path class="cls-19" d="M918.46,814.7c-25.04,0-48.6-5.65-66.35-15.9-18.13-10.49-28.12-24.52-28.12-39.52s10.01-29.03,28.17-39.52c17.77-10.26,41.31-15.9,66.29-15.9,25.23,.02,48.85,5.68,66.59,15.93,18.1,10.46,28.07,24.49,28.07,39.49s-9.97,29.03-28.07,39.49c-17.77,10.26-41.38,15.92-66.49,15.94h-.1Zm.1-106.94c-24.4,0-47.25,5.46-64.44,15.38-16.91,9.77-26.22,22.6-26.22,36.14s9.29,26.38,26.17,36.14c17.16,9.92,40.03,15.38,64.39,15.38v1.95l.1-1.95c24.43-.02,47.36-5.49,64.54-15.41,16.84-9.72,26.12-22.55,26.12-36.11s-9.28-26.37-26.12-36.11c-17.16-9.92-40.08-15.4-64.54-15.41Zm-.03,86.82c-15.76,0-30.59-3.55-41.77-10.01-11.52-6.65-17.86-15.62-17.86-25.26s6.36-18.65,17.92-25.32c11.18-6.46,26.01-10.01,41.75-10.01s30.63,3.56,41.85,10.04c11.54,6.66,17.89,15.63,17.89,25.26s-6.35,18.6-17.89,25.26c-11.22,6.48-26.09,10.04-41.88,10.04Zm.03-66.7c-15.06,0-29.2,3.37-39.8,9.49-10.29,5.95-15.96,13.74-15.96,21.94s5.65,15.95,15.91,21.88c10.6,6.12,24.74,9.49,39.82,9.49s29.3-3.38,39.93-9.52c10.28-5.93,15.94-13.71,15.94-21.88s-5.66-15.95-15.94-21.88c-10.63-6.14-24.8-9.52-39.9-9.52Z"/></g><path class="cls-14" d="M1027.35,849.79c-.19,0-.38-.03-.57-.09-7.88-2.39-22.77-6.02-37.16-9.52-37.8-9.2-39.39-9.99-40-11.84-.21-.64-.06-1.46,.36-1.98,2.06-2.43,4.28-5.8,3.27-8.2-2.21-5.25-17.85-6.39-28.19-7.14-10.73-.78-15.52-1.24-16.76-3.94-.28-.61-.58-1.84,.49-3.28,.28-.37,.67-.63,1.12-.74,8.71-2.04,10.8-3.64,11.27-4.14-2.58-3.24-27.69-7.16-39.71-7.28-9.59-.08-12.64-.84-13.05-3.26-.48-2.83,3.08-4.24,11.92-7.45,3.81-1.38,8.14-2.95,9.52-4.01,.02-.01,.04-.03,.05-.04-3.14,.13-8.87,1.11-12.98,1.81-8.6,1.47-13.57,2.25-15.78,1.4-.73-.28-1.39-1.15-1.41-1.93-.05-1.95,1.28-2.55,11.63-7.26,8.04-3.66,20.2-9.2,31.9-15.93,.14-.08,.25-.15,.34-.21-7.19-5.51-87.85-12.28-116.56,2.44-.97,.49-2.14,.11-2.63-.85-.49-.96-.11-2.14,.85-2.63,29.02-14.88,116.98-10,122.15-.47,.37,.68,1.32,3.08-2.2,5.11-11.87,6.82-24.12,12.4-32.23,16.09-1.08,.49-2.14,.98-3.15,1.44,2.19-.33,4.5-.72,6.43-1.05,13.17-2.24,17.53-2.73,18.73,.05,.99,2.27-1.56,4.21-2.78,5.15-1.86,1.42-6.09,2.96-10.56,4.58-2.24,.81-5.22,1.89-7.28,2.8,1.45,.16,3.69,.29,7.12,.33,.43,0,42.68,2.02,43.66,10.83,.33,3.02-2.88,5.25-10.93,7.44,2.85,.51,7.45,.84,11.11,1.11,13.3,.97,28.38,2.06,31.51,9.52,1.26,2.99,.47,6.4-2.42,10.38,5.47,1.89,22.26,5.98,36.11,9.35,14.44,3.52,29.38,7.15,37.37,9.58,1.03,.31,1.62,1.4,1.3,2.44-.26,.84-1.03,1.39-1.87,1.39Z"/></g></g><g><g><path class="cls-22" d="M591.66,784.61c-35.5-19.43-81.25-29.15-126.82-29.15s-91.32,9.77-126.82,29.26c-32.31,18.61-48.49,42.56-48.49,66.48,0,15.65,6.92,31.31,20.75,45.48,7.95,8.14,18.17,15.79,30.68,22.65,34.22,18.8,79.05,28.2,123.88,28.2s89.81-9.4,124.03-28.23c12.47-6.85,22.67-14.49,30.59-22.62,13.8-14.16,20.69-29.83,20.69-45.48,0-23.97-16.08-47.98-48.48-66.59h0Z"/><g><path class="cls-31" d="M379.63,882.73h0c-8.94,9.47-24,9.9-33.46,.97l-50.79-47.95c-9.47-8.94-9.9-24-.97-33.46h0c8.94-9.47,24-9.9,33.47-.97l50.79,47.95c9.47,8.94,9.9,24,.97,33.46h0Z"/><path class="cls-31" d="M461.04,907.47h0c-2.42,12.79-14.87,21.28-27.67,18.85l-68.63-13c-12.79-2.43-21.28-14.87-18.85-27.67h0c2.43-12.79,14.88-21.28,27.67-18.85l68.63,13c12.79,2.43,21.28,14.87,18.85,27.67h0Z"/><path class="cls-31" d="M410.61,741.67h0c-2.42,12.79-14.87,21.27-27.67,18.85l-68.63-13c-12.79-2.43-21.28-14.87-18.85-27.67h0c2.43-12.79,14.88-21.28,27.67-18.85l68.63,13c12.79,2.43,21.28,14.87,18.85,27.67h0Z"/><path class="cls-31" d="M452.25,680.86h0c7.15,10.89,4.09,25.64-6.79,32.79l-58.38,38.34c-10.88,7.15-25.63,4.09-32.78-6.79h0c-7.15-10.89-4.09-25.64,6.79-32.78l58.38-38.34c10.88-7.15,25.63-4.09,32.78,6.79h0Z"/><path class="cls-31" d="M396.17,715.19h0c8.81,9.59,8.18,24.64-1.41,33.45l-51.42,47.27c-9.59,8.81-24.64,8.18-33.45-1.41-8.81-9.59-8.18-24.64,1.41-33.45l51.42-47.27c9.59-8.81,24.64-8.18,33.45,1.41h0Z"/><path class="cls-31" d="M409.44,832.35h0c3.66,12.5-3.57,25.71-16.07,29.37l-67.04,19.62c-12.5,3.66-25.71-3.57-29.37-16.07h0c-3.66-12.5,3.57-25.71,16.07-29.37l67.04-19.62c12.5-3.66,25.71,3.57,29.37,16.07h0Z"/><path class="cls-31" d="M466.23,859.22h0c-10.96,7.04-25.68,3.83-32.71-7.13l-37.74-58.77c-7.04-10.96-3.83-25.68,7.13-32.71h0c10.96-7.04,25.68-3.83,32.71,7.12l37.74,58.77c7.04,10.96,3.83,25.68-7.13,32.71h0Z"/><path class="cls-31" d="M468.47,680.61h0c12.58-3.37,25.62,4.16,29,16.74l18.09,67.46c3.37,12.58-4.16,25.62-16.73,29h0c-12.58,3.37-25.63-4.16-29-16.73l-18.09-67.46c-3.37-12.58,4.16-25.62,16.73-29h0Z"/><path class="cls-31" d="M505.15,754.63h0c-2.42,12.79-14.87,21.28-27.67,18.85l-68.63-13c-12.79-2.42-21.28-14.87-18.85-27.67h0c2.43-12.79,14.87-21.28,27.67-18.85l68.63,13c12.79,2.42,21.28,14.87,18.85,27.67h0Z"/><path class="cls-31" d="M473.62,786.8h0c-9.84-8.53-10.91-23.56-2.38-33.39l45.76-52.77c8.53-9.84,23.56-10.91,33.39-2.38h0c9.84,8.53,10.91,23.56,2.38,33.39l-45.76,52.77c-8.53,9.84-23.56,10.91-33.39,2.38h0Z"/><path class="cls-31" d="M612.98,732.46h0c5.28,11.9-.14,25.96-12.04,31.24l-63.85,28.32c-11.9,5.28-25.96-.14-31.24-12.04h0c-5.28-11.9,.14-25.96,12.04-31.24l63.85-28.32c11.9-5.28,25.96,.14,31.24,12.04h0Z"/><path class="cls-31" d="M598.49,789.54h0c-4.87,12.07-18.74,17.96-30.81,13.09l-64.77-26.15c-12.07-4.88-17.96-18.74-13.09-30.81h0c4.87-12.07,18.74-17.96,30.81-13.09l64.77,26.15c12.07,4.88,17.96,18.74,13.09,30.81h0Z"/><path class="cls-31" d="M489.3,929.97h0c-10.96,7.04-25.68,3.83-32.71-7.13l-37.74-58.77c-7.04-10.96-3.83-25.68,7.13-32.71h0c10.96-7.04,25.68-3.83,32.71,7.13l37.74,58.77c7.04,10.96,3.83,25.68-7.13,32.71h0Z"/><path class="cls-31" d="M576.77,859.79h0c-10.96,7.04-25.68,3.83-32.71-7.13l-37.74-58.77c-7.04-10.96-3.83-25.68,7.13-32.71h0c10.96-7.04,25.68-3.83,32.71,7.13l37.74,58.77c7.04,10.96,3.83,25.68-7.13,32.71h0Z"/><path class="cls-31" d="M519.54,754.09h0c9.07,9.34,8.84,24.41-.5,33.48l-50.12,48.64c-9.34,9.07-24.41,8.84-33.48-.5h0c-9.07-9.34-8.84-24.41,.5-33.48l50.12-48.64c9.34-9.07,24.41-8.84,33.48,.5h0Z"/><path class="cls-31" d="M583.47,914.04h0c-10.96,7.03-25.68,3.83-32.71-7.13l-37.74-58.77c-7.04-10.96-3.83-25.68,7.13-32.71h0c10.96-7.04,25.68-3.83,32.71,7.12l37.74,58.77c7.04,10.96,3.83,25.68-7.13,32.71h0Z"/><path class="cls-31" d="M522.89,858.08h0c-2.42,12.79-14.87,21.28-27.67,18.85l-68.63-13c-12.79-2.43-21.28-14.87-18.85-27.67h0c2.42-12.79,14.87-21.28,27.67-18.85l68.63,13c12.79,2.42,21.28,14.87,18.85,27.67h0Z"/><path class="cls-31" d="M631.7,779.79h0c7.92,10.34,5.94,25.27-4.4,33.19l-55.45,42.47c-10.34,7.92-25.27,5.94-33.19-4.4h0c-7.92-10.34-5.94-25.27,4.4-33.19l55.45-42.47c10.34-7.92,25.27-5.94,33.19,4.4h0Z"/><path class="cls-31" d="M640.09,861.29h0c-3.44,12.56-16.53,20.01-29.09,16.57l-67.36-18.47c-12.56-3.44-20.01-16.54-16.57-29.09h0c3.44-12.56,16.53-20.01,29.09-16.57l67.36,18.48c12.56,3.44,20.01,16.53,16.57,29.09h0Z"/><path class="cls-31" d="M568.75,841.66h0c-1.88,12.88-13.95,21.89-26.84,20.02l-69.12-10.06c-12.89-1.88-21.89-13.95-20.02-26.84h0c1.88-12.88,13.95-21.89,26.84-20.02l69.12,10.06c12.89,1.88,21.89,13.95,20.02,26.84h0Z"/><path class="cls-31" d="M453.85,832.61h0c-10.96,7.04-25.68,3.83-32.71-7.13l-37.74-58.77c-7.04-10.96-3.83-25.68,7.13-32.71h0c10.96-7.04,25.68-3.83,32.71,7.12l37.74,58.77c7.04,10.96,3.83,25.68-7.13,32.71h0Z"/><path class="cls-31" d="M512.62,912.03h0c-7.91-10.34-5.93-25.27,4.41-33.19l55.47-42.45c10.34-7.92,25.27-5.93,33.19,4.41h0c7.91,10.34,5.93,25.27-4.41,33.19l-55.47,42.45c-10.34,7.91-25.27,5.93-33.19-4.42h0Z"/><path class="cls-31" d="M340.89,738.88h0c-11.05-6.89-14.44-21.57-7.55-32.62l36.98-59.25c6.89-11.05,21.57-14.44,32.62-7.55h0c11.05,6.9,14.44,21.57,7.55,32.62l-36.98,59.25c-6.9,11.05-21.57,14.44-32.62,7.55h0Z"/><path class="cls-31" d="M465.67,819.42h0c-2.98,12.68-15.79,20.6-28.47,17.62l-67.99-16c-12.67-2.98-20.6-15.79-17.62-28.47h0c2.98-12.67,15.79-20.6,28.47-17.62l67.99,16c12.67,2.98,20.6,15.79,17.62,28.47h0Z"/></g><g class="cls-21"><g class="cls-41"><rect class="cls-50" x="280.06" y="336.28" width="369.55" height="616.45"/></g></g><g class="cls-58"><g><path class="cls-6" d="M595.62,367.51c36.09,20.82,54,48.11,54,75.37v403.28c0,27.25-17.98,54.52-54.05,75.34-36.07,20.82-83.47,31.23-130.73,31.23s-94.48-10.4-130.57-31.2c-36.09-20.8-54.2-48.11-54.2-75.37V442.88c0-27.26,18.11-54.55,54.2-75.37,36.09-20.82,83.32-31.24,130.57-31.24s94.69,10.42,130.78,31.24h0Z"/><g class="cls-45"><rect class="cls-5" x="280.06" y="336.28" width="369.55" height="616.45"/></g></g></g></g><g><g class="cls-48"><rect class="cls-65" x="320.46" y="568.7" width="288.75" height="338.13"/></g><g><path class="cls-19" d="M365.08,731.59h0c-2.78,0-5.03-2.26-5.02-5.04,.03-15.45,.05-30.9,.07-46.33-.04-.37-.04-.75,0-1.13,0-3.11,0-6.21,0-9.32v-22.31c.01-11.65,.02-23.3,.04-34.93,0-1.64,.81-3.19,2.16-4.12,1.35-.93,3.07-1.16,4.62-.58,10.58,3.94,20.94,7.69,31.43,10.41,19.77,5.13,35.28,24.87,35.32,44.95,0,10.71-4.35,20.25-11.94,26.2-7.19,5.64-16.39,7.46-25.89,5.11-8.87-2.19-17.67-5.01-25.71-7.76-.02,13.3-.04,26.56-.06,39.83,0,2.77-2.26,5.02-5.03,5.02Zm5.1-55.48c8.67,3.01,18.4,6.24,28.1,8.63,6.43,1.59,12.57,.43,17.27-3.26,5.14-4.03,8.09-10.69,8.09-18.27-.03-15.71-12.24-31.19-27.79-35.22-8.66-2.25-17.12-5.13-25.64-8.23-.01,9.23-.01,18.47-.02,27.71v22.15c-.01,2.17-.02,4.33-.02,6.5Z"/><path class="cls-19" d="M463.27,778.69c-1.41,0-2.81-.59-3.8-1.74-23.04-26.6-46.59-55.25-69.97-85.15-1.71-2.19-1.32-5.35,.86-7.06,2.19-1.71,5.35-1.32,7.06,.86,23.28,29.77,46.72,58.29,69.65,84.76,1.82,2.1,1.59,5.27-.51,7.09-.95,.83-2.12,1.23-3.29,1.23Z"/><path class="cls-19" d="M407.9,770.77c-1.41,0-2.82-.59-3.81-1.74-1.81-2.1-1.58-5.28,.52-7.09,18.8-16.24,37.3-33.08,54.96-50.07,2-1.92,5.18-1.86,7.11,.14,1.93,2,1.86,5.19-.14,7.11-17.8,17.11-36.42,34.08-55.36,50.43-.95,.82-2.12,1.22-3.28,1.22Z"/><g><path class="cls-16" d="M464.84,875.45c-37.64,0-75.29-6.76-106.03-19.03-1.48-.59-2.19-2.26-1.6-3.74,.59-1.47,2.25-2.2,3.73-1.6,30.08,12.01,66.98,18.62,103.9,18.62s73.33-6.45,103.9-18.66c1.48-.6,3.15,.13,3.74,1.6,.59,1.47-.13,3.15-1.6,3.74-31.24,12.48-67.91,19.07-106.03,19.07Z"/><path class="cls-16" d="M464.84,844.22c-37.64,0-75.29-6.76-106.03-19.03-1.48-.59-2.19-2.26-1.6-3.74,.59-1.47,2.25-2.19,3.73-1.6,30.08,12.01,66.98,18.62,103.9,18.62s73.34-6.45,103.9-18.66c1.48-.59,3.15,.13,3.74,1.6,.59,1.47-.13,3.15-1.6,3.74-31.23,12.48-67.9,19.07-106.03,19.07Z"/><path class="cls-16" d="M464.84,813c-37.64,0-75.29-6.76-106.03-19.03-1.48-.59-2.19-2.26-1.6-3.74,.59-1.47,2.25-2.2,3.73-1.6,30.08,12.01,66.98,18.62,103.9,18.62s73.34-6.45,103.9-18.66c1.48-.59,3.15,.13,3.74,1.6,.59,1.47-.13,3.15-1.6,3.74-31.23,12.48-67.9,19.07-106.03,19.07Z"/></g></g></g><g><path class="cls-32" d="M613.9,285.91c41.14,23.73,61.54,54.84,61.54,85.9v59.86c0,31.06-20.49,62.16-61.61,85.87-41.11,23.74-95.14,35.6-149,35.6s-107.72-11.85-148.83-35.56c-41.17-23.71-61.78-54.84-61.78-85.9v-59.86c0-31.06,20.62-62.16,61.78-85.9,41.11-23.71,94.97-35.6,148.83-35.6s107.93,11.87,149.06,35.6h0Z"/><g class="cls-44"><rect class="cls-66" x="294.54" y="154.75" width="340.59" height="467.44" transform="translate(-58.75 693.15) rotate(-70.08)"/></g><g class="cls-43"><rect class="cls-64" x="291.61" y="133.85" width="346.44" height="452.59" transform="translate(-35.55 669) rotate(-69.45)"/></g><g class="cls-21"><g class="cls-42"><rect class="cls-63" x="254.28" y="371.81" width="421.16" height="181.32"/></g></g><g class="cls-46"><rect class="cls-61" x="254.28" y="374.58" width="412.59" height="178.56"/></g><g class="cls-47"><rect class="cls-62" x="302.61" y="146.76" width="324.44" height="426.78" transform="translate(-32.57 673.77) rotate(-70)"/></g></g></g><g id="pill"><path class="cls-20" d="M850.3,863.95c-3.38-6.52-12.91-8.35-21.17-4.07l-20.93,10.86-20.93,10.86c-8.26,4.28-12.25,13.13-8.87,19.65,3.38,6.52,12.91,8.35,21.17,4.07l20.93-10.86,20.93-10.86c8.26-4.28,12.25-13.13,8.87-19.65Z"/><path class="cls-12" d="M828.4,886.69l-21.73,11.27c-8.57,4.45-18.46,2.55-21.98-4.22-3.51-6.77,.63-15.95,9.2-20.4l21.73-11.27,12.77,24.62Z"/><path class="cls-11" d="M796.68,872.9c-7.24,3.76-11.15,11.2-8.53,16.24,2.62,5.05,10.95,6.14,18.19,2.38l19.5-10.12-9.66-18.63-19.5,10.12Z"/><path class="cls-17" d="M828.4,886.69l21.73-11.27c8.57-4.45,12.72-13.63,9.2-20.4-3.51-6.77-13.4-8.67-21.98-4.22l-21.73,11.27,12.77,24.62Z"/><path class="cls-18" d="M816.05,862.85l9.66,18.63,19.5-10.12c7.24-3.76,11.15-11.2,8.53-16.24-2.62-5.05-10.95-6.14-18.19-2.38l-19.5,10.12Z"/></g><g id="pill-2"><path class="cls-20" d="M866.55,811.66c-3.52-6.45-13.09-8.07-21.25-3.6l-20.69,11.31-20.69,11.32c-8.16,4.46-11.96,13.39-8.44,19.84,3.52,6.45,13.09,8.07,21.25,3.6l20.69-11.31,20.69-11.31c8.16-4.46,11.96-13.39,8.43-19.84Z"/><path class="cls-17" d="M842.66,835.77l-21.48,11.74c-8.47,4.63-18.4,2.95-22.06-3.74-3.66-6.69,.28-15.96,8.76-20.59l21.47-11.75,13.31,24.33Z"/><path class="cls-18" d="M810.64,822.68c-7.16,3.91-10.9,11.44-8.17,16.43,2.73,4.99,11.08,5.9,18.24,1.98l19.27-10.54-10.07-18.41-19.27,10.54Z"/><path class="cls-12" d="M842.66,835.77l21.47-11.75c8.47-4.63,12.41-13.9,8.76-20.59-3.66-6.69-13.59-8.37-22.06-3.74l-21.48,11.74,13.31,24.33Z"/><path class="cls-11" d="M829.79,812.21l10.07,18.41,19.27-10.54c7.16-3.91,10.9-11.44,8.17-16.43-2.73-4.99-11.08-5.9-18.24-1.98l-19.27,10.54Z"/></g></g></g></g></svg>